<svg xmlns="http://www.w3.org/2000/svg" fill="none" viewBox="0 0 38 38">
  <rect width="38" height="38" fill="#000" rx="4"/>
  <path fill="#000" d="M3 3h32v32H3z"/>
  <path stroke="#fff" d="M31.128 24.52a.5.5 0 0 1 .303.23.5.5 0 0 1-.182.682h-.001l-12 7a.5.5 0 0 1-.504 0l-11.997-7a.5.5 0 0 1 .503-.863l11.498 6.706.252.146.252-.146 11.498-6.706a.5.5 0 0 1 .378-.05Zm.012-6.011a.5.5 0 0 1 .122.92l-.006.003-12 7a.5.5 0 0 1-.504 0L6.773 19.444a.5.5 0 0 1 .497-.863l11.478 6.694.252.146.252-.146 11.5-6.706.006-.004a.5.5 0 0 1 .382-.056ZM19.004 5.5c.088 0 .175.024.252.068l12 7a.5.5 0 0 1 0 .864l-12 7a.5.5 0 0 1-.504 0l-12-7-.002-.001-.055-.036a.5.5 0 0 1 0-.79l.055-.036h.002l12-7a.5.5 0 0 1 .252-.069Zm-.256 1.226L8.733 12.569l-.74.431.74.432 10.015 5.842.252.147.252-.146 10.015-5.843.74-.432-.74-.431-10.015-5.843L19 6.578z"/>
</svg>